<?xml version="1.0" encoding="utf-8"?><svg xmlns="http://www.w3.org/2000/svg" viewBox="146.175 42.2 207.65 65.6" style="background: rgba(0, 0, 0, 0);">
  <defs>
    <linearGradient id="editing-gradient-gradient" x1="0" x2="1" y1="0.5" y2="0.5" gradientUnits="objectBoundingBox">
         <stop offset="0" style="stop-color: rgb(65, 65, 65);" />
        <stop offset="1" style="stop-color: rgb(155, 155, 155);" />
    </linearGradient>
    <style>text {
  font-size: 64px;
  font-family: Arial Black;
  dominant-baseline: central;
  text-anchor: middle;
}</style>
  </defs>
  <g>
    <g transform="translate(180.77501463890076, 85.08500003814697)">
      <path d="M13.72-20.03L15.63-20.03L15.63 0L13.80 0L13.80-2.81L13.80-2.81Q12.93-1.38 11.52-0.62L11.52-0.62L11.52-0.62Q10.10 0.14 8.32 0.14L8.32 0.14L8.32 0.14Q6.32 0.14 4.70-0.78L4.70-0.78L4.70-0.78Q3.08-1.70 2.16-3.35L2.16-3.35L2.16-3.35Q1.24-5.00 1.24-7.10L1.24-7.10L1.24-7.10Q1.24-9.21 2.16-10.85L2.16-10.85L2.16-10.85Q3.08-12.50 4.70-13.41L4.70-13.41L4.70-13.41Q6.32-14.31 8.32-14.31L8.32-14.31L8.32-14.31Q10.04-14.31 11.43-13.59L11.43-13.59L11.43-13.59Q12.82-12.88 13.72-11.50L13.72-11.50L13.72-20.03ZM8.48-1.57L8.48-1.57Q9.96-1.57 11.16-2.25L11.16-2.25L11.16-2.25Q12.37-2.94 13.05-4.21L13.05-4.21L13.05-4.21Q13.74-5.48 13.74-7.10L13.74-7.10L13.74-7.10Q13.74-8.72 13.05-9.99L13.05-9.99L13.05-9.99Q12.37-11.26 11.16-11.95L11.16-11.95L11.16-11.95Q9.96-12.64 8.48-12.64L8.48-12.64L8.48-12.64Q6.97-12.64 5.76-11.95L5.76-11.95L5.76-11.95Q4.56-11.26 3.87-9.99L3.87-9.99L3.87-9.99Q3.19-8.72 3.19-7.10L3.19-7.10L3.19-7.10Q3.19-5.48 3.87-4.21L3.87-4.21L3.87-4.21Q4.56-2.94 5.76-2.25L5.76-2.25L5.76-2.25Q6.97-1.57 8.48-1.57L8.48-1.57ZM25.95-14.31L25.95-14.31Q28.73-14.31 30.21-12.92L30.21-12.92L30.21-12.92Q31.70-11.53 31.70-8.80L31.70-8.80L31.70 0L29.86 0L29.86-2.21L29.86-2.21Q29.21-1.11 27.96-0.49L27.96-0.49L27.96-0.49Q26.70 0.14 24.98 0.14L24.98 0.14L24.98 0.14Q22.60 0.14 21.20-1.00L21.20-1.00L21.20-1.00Q19.79-2.13 19.79-4.00L19.79-4.00L19.79-4.00Q19.79-5.80 21.10-6.91L21.10-6.91L21.10-6.91Q22.41-8.02 25.27-8.02L25.27-8.02L29.78-8.02L29.78-8.88L29.78-8.88Q29.78-10.72 28.76-11.68L28.76-11.68L28.76-11.68Q27.73-12.64 25.76-12.64L25.76-12.64L25.76-12.64Q24.41-12.64 23.17-12.19L23.17-12.19L23.17-12.19Q21.92-11.74 21.03-10.96L21.03-10.96L20.17-12.39L20.17-12.39Q21.25-13.31 22.76-13.81L22.76-13.81L22.76-13.81Q24.27-14.31 25.95-14.31L25.95-14.31ZM25.27-1.38L25.27-1.38Q26.89-1.38 28.05-2.12L28.05-2.12L28.05-2.12Q29.21-2.86 29.78-4.27L29.78-4.27L29.78-6.59L25.33-6.59L25.33-6.59Q21.68-6.59 21.68-4.05L21.68-4.05L21.68-4.05Q21.68-2.81 22.63-2.09L22.63-2.09L22.63-2.09Q23.57-1.38 25.27-1.38L25.27-1.38ZM43.71-2.24L44.39-0.86L44.39-0.86Q43.85-0.38 43.05-0.12L43.05-0.12L43.05-0.12Q42.26 0.14 41.39 0.14L41.39 0.14L41.39 0.14Q39.39 0.14 38.31-0.94L38.31-0.94L38.31-0.94Q37.23-2.02 37.23-4.00L37.23-4.00L37.23-12.58L34.70-12.58L34.70-14.20L37.23-14.20L37.23-17.31L39.15-17.31L39.15-14.20L43.47-14.20L43.47-12.58L39.15-12.58L39.15-4.10L39.15-4.10Q39.15-2.83 39.78-2.17L39.78-2.17L39.78-2.17Q40.42-1.51 41.61-1.51L41.61-1.51L41.61-1.51Q42.20-1.51 42.75-1.70L42.75-1.70L42.75-1.70Q43.31-1.89 43.71-2.24L43.71-2.24ZM52.84-14.31L52.84-14.31Q55.62-14.31 57.11-12.92L57.11-12.92L57.11-12.92Q58.59-11.53 58.59-8.80L58.59-8.80L58.59 0L56.75 0L56.75-2.21L56.75-2.21Q56.11-1.11 54.85-0.49L54.85-0.49L54.85-0.49Q53.60 0.14 51.87 0.14L51.87 0.14L51.87 0.14Q49.49 0.14 48.09-1.00L48.09-1.00L48.09-1.00Q46.68-2.13 46.68-4.00L46.68-4.00L46.68-4.00Q46.68-5.80 47.99-6.91L47.99-6.91L47.99-6.91Q49.30-8.02 52.16-8.02L52.16-8.02L56.67-8.02L56.67-8.88L56.67-8.88Q56.67-10.72 55.65-11.68L55.65-11.68L55.65-11.68Q54.62-12.64 52.65-12.64L52.65-12.64L52.65-12.64Q51.30-12.64 50.06-12.19L50.06-12.19L50.06-12.19Q48.82-11.74 47.93-10.96L47.93-10.96L47.06-12.39L47.06-12.39Q48.14-13.31 49.65-13.81L49.65-13.81L49.65-13.81Q51.17-14.31 52.84-14.31L52.84-14.31ZM52.16-1.38L52.16-1.38Q53.78-1.38 54.95-2.12L54.95-2.12L54.95-2.12Q56.11-2.86 56.67-4.27L56.67-4.27L56.67-6.59L52.22-6.59L52.22-6.59Q48.57-6.59 48.57-4.05L48.57-4.05L48.57-4.05Q48.57-2.81 49.52-2.09L49.52-2.09L49.52-2.09Q50.46-1.38 52.16-1.38L52.16-1.38ZM71.12-14.31L71.12-14.31Q73.12-14.31 74.74-13.41L74.74-13.41L74.74-13.41Q76.36-12.50 77.27-10.85L77.27-10.85L77.27-10.85Q78.19-9.21 78.19-7.10L78.19-7.10L78.19-7.10Q78.19-5.00 77.27-3.35L77.27-3.35L77.27-3.35Q76.36-1.70 74.74-0.78L74.74-0.78L74.74-0.78Q73.12 0.14 71.12 0.14L71.12 0.14L71.12 0.14Q69.34 0.14 67.92-0.62L67.92-0.62L67.92-0.62Q66.50-1.38 65.64-2.81L65.64-2.81L65.64 0L63.80 0L63.80-20.03L65.72-20.03L65.72-11.50L65.72-11.50Q66.61-12.88 68.00-13.59L68.00-13.59L68.00-13.59Q69.39-14.31 71.12-14.31L71.12-14.31ZM70.98-1.57L70.98-1.57Q72.47-1.57 73.68-2.25L73.68-2.25L73.68-2.25Q74.90-2.94 75.59-4.21L75.59-4.21L75.59-4.21Q76.28-5.48 76.28-7.10L76.28-7.10L76.28-7.10Q76.28-8.72 75.59-9.99L75.59-9.99L75.59-9.99Q74.90-11.26 73.68-11.95L73.68-11.95L73.68-11.95Q72.47-12.64 70.98-12.64L70.98-12.64L70.98-12.64Q69.47-12.64 68.27-11.95L68.27-11.95L68.27-11.95Q67.07-11.26 66.38-9.99L66.38-9.99L66.38-9.99Q65.69-8.72 65.69-7.10L65.69-7.10L65.69-7.10Q65.69-5.48 66.38-4.21L66.38-4.21L66.38-4.21Q67.07-2.94 68.27-2.25L68.27-2.25L68.27-2.25Q69.47-1.57 70.98-1.57L70.98-1.57ZM87.08-14.31L87.08-14.31Q89.86-14.31 91.34-12.92L91.34-12.92L91.34-12.92Q92.83-11.53 92.83-8.80L92.83-8.80L92.83 0L90.99 0L90.99-2.21L90.99-2.21Q90.34-1.11 89.09-0.49L89.09-0.49L89.09-0.49Q87.83 0.14 86.10 0.14L86.10 0.14L86.10 0.14Q83.73 0.14 82.32-1.00L82.32-1.00L82.32-1.00Q80.92-2.13 80.92-4.00L80.92-4.00L80.92-4.00Q80.92-5.80 82.23-6.91L82.23-6.91L82.23-6.91Q83.54-8.02 86.40-8.02L86.40-8.02L90.91-8.02L90.91-8.88L90.91-8.88Q90.91-10.72 89.88-11.68L89.88-11.68L89.88-11.68Q88.86-12.64 86.89-12.64L86.89-12.64L86.89-12.64Q85.54-12.64 84.29-12.19L84.29-12.19L84.29-12.19Q83.05-11.74 82.16-10.96L82.16-10.96L81.30-12.39L81.30-12.39Q82.38-13.31 83.89-13.81L83.89-13.81L83.89-13.81Q85.40-14.31 87.08-14.31L87.08-14.31ZM86.40-1.38L86.40-1.38Q88.02-1.38 89.18-2.12L89.18-2.12L89.18-2.12Q90.34-2.86 90.91-4.27L90.91-4.27L90.91-6.59L86.45-6.59L86.45-6.59Q82.81-6.59 82.81-4.05L82.81-4.05L82.81-4.05Q82.81-2.81 83.75-2.09L83.75-2.09L83.75-2.09Q84.70-1.38 86.40-1.38L86.40-1.38ZM101.84 0.14L101.84 0.14Q100.12 0.14 98.54-0.36L98.54-0.36L98.54-0.36Q96.96-0.86 96.07-1.62L96.07-1.62L96.93-3.13L96.93-3.13Q97.82-2.43 99.17-1.98L99.17-1.98L99.17-1.98Q100.52-1.54 101.98-1.54L101.98-1.54L101.98-1.54Q103.92-1.54 104.85-2.15L104.85-2.15L104.85-2.15Q105.79-2.75 105.79-3.86L105.79-3.86L105.79-3.86Q105.79-4.64 105.27-5.09L105.27-5.09L105.27-5.09Q104.76-5.54 103.98-5.76L103.98-5.76L103.98-5.76Q103.19-5.99 101.90-6.21L101.90-6.21L101.90-6.21Q100.17-6.53 99.12-6.87L99.12-6.87L99.12-6.87Q98.06-7.21 97.32-8.02L97.32-8.02L97.32-8.02Q96.58-8.83 96.58-10.26L96.58-10.26L96.58-10.26Q96.58-12.04 98.06-13.18L98.06-13.18L98.06-13.18Q99.55-14.31 102.20-14.31L102.20-14.31L102.20-14.31Q103.57-14.31 104.95-13.95L104.95-13.95L104.95-13.95Q106.33-13.58 107.22-12.99L107.22-12.99L106.38-11.45L106.38-11.45Q104.63-12.66 102.20-12.66L102.20-12.66L102.20-12.66Q100.36-12.66 99.43-12.02L99.43-12.02L99.43-12.02Q98.50-11.37 98.50-10.31L98.50-10.31L98.50-10.31Q98.50-9.50 99.02-9.02L99.02-9.02L99.02-9.02Q99.55-8.53 100.33-8.30L100.33-8.30L100.33-8.30Q101.12-8.07 102.49-7.83L102.49-7.83L102.49-7.83Q104.19-7.51 105.22-7.18L105.22-7.18L105.22-7.18Q106.25-6.86 106.97-6.08L106.97-6.08L106.97-6.08Q107.70-5.29 107.70-3.92L107.70-3.92L107.70-3.92Q107.70-2.05 106.15-0.96L106.15-0.96L106.15-0.96Q104.60 0.14 101.84 0.14L101.84 0.14ZM123.63-7.10L123.61-6.51L111.73-6.51L111.73-6.51Q111.89-4.29 113.43-2.93L113.43-2.93L113.43-2.93Q114.97-1.57 117.32-1.57L117.32-1.57L117.32-1.57Q118.64-1.57 119.75-2.04L119.75-2.04L119.75-2.04Q120.85-2.51 121.66-3.43L121.66-3.43L122.74-2.19L122.74-2.19Q121.80-1.05 120.38-0.46L120.38-0.46L120.38-0.46Q118.96 0.14 117.26 0.14L117.26 0.14L117.26 0.14Q115.07 0.14 113.39-0.80L113.39-0.80L113.39-0.80Q111.70-1.73 110.75-3.38L110.75-3.38L110.75-3.38Q109.81-5.02 109.81-7.10L109.81-7.10L109.81-7.10Q109.81-9.18 110.71-10.83L110.71-10.83L110.71-10.83Q111.62-12.47 113.20-13.39L113.20-13.39L113.20-13.39Q114.78-14.31 116.75-14.31L116.75-14.31L116.75-14.31Q118.72-14.31 120.29-13.39L120.29-13.39L120.29-13.39Q121.85-12.47 122.74-10.84L122.74-10.84L122.74-10.84Q123.63-9.21 123.63-7.10L123.63-7.10ZM116.75-12.66L116.75-12.66Q114.70-12.66 113.31-11.35L113.31-11.35L113.31-11.35Q111.92-10.04 111.73-7.94L111.73-7.94L121.80-7.94L121.80-7.94Q121.61-10.04 120.22-11.35L120.22-11.35L120.22-11.35Q118.83-12.66 116.75-12.66L116.75-12.66ZM131.35 0.14L131.35 0.14Q129.63 0.14 128.05-0.36L128.05-0.36L128.05-0.36Q126.47-0.86 125.58-1.62L125.58-1.62L126.44-3.13L126.44-3.13Q127.33-2.43 128.68-1.98L128.68-1.98L128.68-1.98Q130.03-1.54 131.49-1.54L131.49-1.54L131.49-1.54Q133.43-1.54 134.37-2.15L134.37-2.15L134.37-2.15Q135.30-2.75 135.30-3.86L135.30-3.86L135.30-3.86Q135.30-4.64 134.78-5.09L134.78-5.09L134.78-5.09Q134.27-5.54 133.49-5.76L133.49-5.76L133.49-5.76Q132.71-5.99 131.41-6.21L131.41-6.21L131.41-6.21Q129.68-6.53 128.63-6.87L128.63-6.87L128.63-6.87Q127.58-7.21 126.83-8.02L126.83-8.02L126.83-8.02Q126.09-8.83 126.09-10.26L126.09-10.26L126.09-10.26Q126.09-12.04 127.58-13.18L127.58-13.18L127.58-13.18Q129.06-14.31 131.71-14.31L131.71-14.31L131.71-14.31Q133.08-14.31 134.46-13.95L134.46-13.95L134.46-13.95Q135.84-13.58 136.73-12.99L136.73-12.99L135.89-11.45L135.89-11.45Q134.14-12.66 131.71-12.66L131.71-12.66L131.71-12.66Q129.87-12.66 128.94-12.02L128.94-12.02L128.94-12.02Q128.01-11.37 128.01-10.31L128.01-10.31L128.01-10.31Q128.01-9.50 128.53-9.02L128.53-9.02L128.53-9.02Q129.06-8.53 129.84-8.30L129.84-8.30L129.84-8.30Q130.63-8.07 132.00-7.83L132.00-7.83L132.00-7.83Q133.70-7.51 134.73-7.18L134.73-7.18L134.73-7.18Q135.76-6.86 136.49-6.08L136.49-6.08L136.49-6.08Q137.21-5.29 137.21-3.92L137.21-3.92L137.21-3.92Q137.21-2.05 135.66-0.96L135.66-0.96L135.66-0.96Q134.11 0.14 131.35 0.14L131.35 0.14Z" fill="url(#editing-gradient-gradient)"/>
    </g>
  </g>
</svg>
