<?xml version="1.0" encoding="utf-8"?><svg xmlns="http://www.w3.org/2000/svg" viewBox="57.91875000000002 42.2 384.16249999999997 65.6" style="background: rgba(0, 0, 0, 0);">
  <defs>
    <linearGradient id="editing-gradient-gradient" x1="0" x2="1" y1="0.5" y2="0.5" gradientUnits="objectBoundingBox">
       <stop offset="0" style="stop-color: rgb(65, 65, 65);" />
        <stop offset="1" style="stop-color: rgb(155, 155, 155);" />
    </linearGradient>
    <style>text {
  font-size: 64px;
  font-family: Arial Black;
  dominant-baseline: central;
  text-anchor: middle;
}</style>
  </defs>
  <g>
    <g transform="translate(115.51497557759285, 87.77000045776367)">
      <path d="M7.37-18.55L7.37-18.55Q6.13-18.55 5.49-17.87L5.49-17.87L5.49-17.87Q4.86-17.20 4.86-15.88L4.86-15.88L4.86-14.20L9.23-14.20L9.23-12.58L4.91-12.58L4.91 0L3.00 0L3.00-12.58L0.46-12.58L0.46-14.20L3.00-14.20L3.00-15.96L3.00-15.96Q3.00-17.90 4.12-19.04L4.12-19.04L4.12-19.04Q5.24-20.17 7.29-20.17L7.29-20.17L7.29-20.17Q8.10-20.17 8.86-19.94L8.86-19.94L8.86-19.94Q9.61-19.71 10.13-19.28L10.13-19.28L9.48-17.85L9.48-17.85Q8.64-18.55 7.37-18.55L7.37-18.55ZM16.79-14.31L16.79-14.31Q19.58-14.31 21.06-12.92L21.06-12.92L21.06-12.92Q22.55-11.53 22.55-8.80L22.55-8.80L22.55 0L20.71 0L20.71-2.21L20.71-2.21Q20.06-1.11 18.81-0.49L18.81-0.49L18.81-0.49Q17.55 0.14 15.82 0.14L15.82 0.14L15.82 0.14Q13.45 0.14 12.04-1.00L12.04-1.00L12.04-1.00Q10.64-2.13 10.64-4.00L10.64-4.00L10.64-4.00Q10.64-5.80 11.95-6.91L11.95-6.91L11.95-6.91Q13.26-8.02 16.12-8.02L16.12-8.02L20.63-8.02L20.63-8.88L20.63-8.88Q20.63-10.72 19.60-11.68L19.60-11.68L19.60-11.68Q18.58-12.64 16.61-12.64L16.61-12.64L16.61-12.64Q15.26-12.64 14.01-12.19L14.01-12.19L14.01-12.19Q12.77-11.74 11.88-10.96L11.88-10.96L11.02-12.39L11.02-12.39Q12.10-13.31 13.61-13.81L13.61-13.81L13.61-13.81Q15.12-14.31 16.79-14.31L16.79-14.31ZM16.12-1.38L16.12-1.38Q17.74-1.38 18.90-2.12L18.90-2.12L18.90-2.12Q20.06-2.86 20.63-4.27L20.63-4.27L20.63-6.59L16.17-6.59L16.17-6.59Q12.53-6.59 12.53-4.05L12.53-4.05L12.53-4.05Q12.53-2.81 13.47-2.09L13.47-2.09L13.47-2.09Q14.42-1.38 16.12-1.38L16.12-1.38ZM37.80-14.20L39.69-14.20L33.37 0L31.40 0L25.11-14.20L27.11-14.20L32.43-2.11L37.80-14.20ZM48.20 0.14L48.20 0.14Q46.14 0.14 44.50-0.80L44.50-0.80L44.50-0.80Q42.85-1.73 41.90-3.38L41.90-3.38L41.90-3.38Q40.96-5.02 40.96-7.10L40.96-7.10L40.96-7.10Q40.96-9.18 41.90-10.83L41.90-10.83L41.90-10.83Q42.85-12.47 44.50-13.39L44.50-13.39L44.50-13.39Q46.14-14.31 48.20-14.31L48.20-14.31L48.20-14.31Q50.25-14.31 51.89-13.39L51.89-13.39L51.89-13.39Q53.54-12.47 54.47-10.83L54.47-10.83L54.47-10.83Q55.40-9.18 55.40-7.10L55.40-7.10L55.40-7.10Q55.40-5.02 54.47-3.38L54.47-3.38L54.47-3.38Q53.54-1.73 51.89-0.80L51.89-0.80L51.89-0.80Q50.25 0.14 48.20 0.14L48.20 0.14ZM48.20-1.57L48.20-1.57Q49.71-1.57 50.91-2.25L50.91-2.25L50.91-2.25Q52.11-2.94 52.78-4.21L52.78-4.21L52.78-4.21Q53.46-5.48 53.46-7.10L53.46-7.10L53.46-7.10Q53.46-8.72 52.78-9.99L52.78-9.99L52.78-9.99Q52.11-11.26 50.91-11.95L50.91-11.95L50.91-11.95Q49.71-12.64 48.20-12.64L48.20-12.64L48.20-12.64Q46.68-12.64 45.48-11.95L45.48-11.95L45.48-11.95Q44.28-11.26 43.59-9.99L43.59-9.99L43.59-9.99Q42.90-8.72 42.90-7.10L42.90-7.10L42.90-7.10Q42.90-5.48 43.59-4.21L43.59-4.21L43.59-4.21Q44.28-2.94 45.48-2.25L45.48-2.25L45.48-2.25Q46.68-1.57 48.20-1.57L48.20-1.57ZM70.20-14.20L72.12-14.20L72.12 0L70.28 0L70.28-2.59L70.28-2.59Q69.53-1.30 68.20-0.58L68.20-0.58L68.20-0.58Q66.88 0.14 65.18 0.14L65.18 0.14L65.18 0.14Q62.40 0.14 60.79-1.42L60.79-1.42L60.79-1.42Q59.18-2.97 59.18-5.97L59.18-5.97L59.18-14.20L61.10-14.20L61.10-6.16L61.10-6.16Q61.10-3.92 62.21-2.75L62.21-2.75L62.21-2.75Q63.31-1.59 65.37-1.59L65.37-1.59L65.37-1.59Q67.61-1.59 68.90-2.96L68.90-2.96L68.90-2.96Q70.20-4.32 70.20-6.75L70.20-6.75L70.20-14.20ZM79.33-11.42L79.33-11.42Q80.00-12.85 81.34-13.58L81.34-13.58L81.34-13.58Q82.67-14.31 84.65-14.31L84.65-14.31L84.65-12.45L84.19-12.47L84.19-12.47Q81.95-12.47 80.68-11.10L80.68-11.10L80.68-11.10Q79.41-9.72 79.41-7.24L79.41-7.24L79.41 0L77.49 0L77.49-14.20L79.33-14.20L79.33-11.42ZM88.32 0L88.32-14.20L90.23-14.20L90.23 0L88.32 0ZM89.29-17.31L89.29-17.31Q88.70-17.31 88.29-17.71L88.29-17.71L88.29-17.71Q87.89-18.12 87.89-18.68L87.89-18.68L87.89-18.68Q87.89-19.22 88.29-19.63L88.29-19.63L88.29-19.63Q88.70-20.03 89.29-20.03L89.29-20.03L89.29-20.03Q89.88-20.03 90.29-19.64L90.29-19.64L90.29-19.64Q90.69-19.25 90.69-18.71L90.69-18.71L90.69-18.71Q90.69-18.12 90.29-17.71L90.29-17.71L90.29-17.71Q89.88-17.31 89.29-17.31L89.29-17.31ZM102.38-2.24L103.06-0.86L103.06-0.86Q102.52-0.38 101.72-0.12L101.72-0.12L101.72-0.12Q100.93 0.14 100.06 0.14L100.06 0.14L100.06 0.14Q98.06 0.14 96.98-0.94L96.98-0.94L96.98-0.94Q95.90-2.02 95.90-4.00L95.90-4.00L95.90-12.58L93.37-12.58L93.37-14.20L95.90-14.20L95.90-17.31L97.82-17.31L97.82-14.20L102.14-14.20L102.14-12.58L97.82-12.58L97.82-4.10L97.82-4.10Q97.82-2.83 98.46-2.17L98.46-2.17L98.46-2.17Q99.09-1.51 100.28-1.51L100.28-1.51L100.28-1.51Q100.87-1.51 101.43-1.70L101.43-1.70L101.43-1.70Q101.98-1.89 102.38-2.24L102.38-2.24ZM118.94-7.10L118.91-6.51L107.03-6.51L107.03-6.51Q107.19-4.29 108.73-2.93L108.73-2.93L108.73-2.93Q110.27-1.57 112.62-1.57L112.62-1.57L112.62-1.57Q113.94-1.57 115.05-2.04L115.05-2.04L115.05-2.04Q116.15-2.51 116.96-3.43L116.96-3.43L118.04-2.19L118.04-2.19Q117.10-1.05 115.68-0.46L115.68-0.46L115.68-0.46Q114.26 0.14 112.56 0.14L112.56 0.14L112.56 0.14Q110.38 0.14 108.69-0.80L108.69-0.80L108.69-0.80Q107.00-1.73 106.06-3.38L106.06-3.38L106.06-3.38Q105.11-5.02 105.11-7.10L105.11-7.10L105.11-7.10Q105.11-9.18 106.02-10.83L106.02-10.83L106.02-10.83Q106.92-12.47 108.50-13.39L108.50-13.39L108.50-13.39Q110.08-14.31 112.05-14.31L112.05-14.31L112.05-14.31Q114.02-14.31 115.59-13.39L115.59-13.39L115.59-13.39Q117.15-12.47 118.04-10.84L118.04-10.84L118.04-10.84Q118.94-9.21 118.94-7.10L118.94-7.10ZM112.05-12.66L112.05-12.66Q110.00-12.66 108.61-11.35L108.61-11.35L108.61-11.35Q107.22-10.04 107.03-7.94L107.03-7.94L117.10-7.94L117.10-7.94Q116.91-10.04 115.52-11.35L115.52-11.35L115.52-11.35Q114.13-12.66 112.05-12.66L112.05-12.66ZM129.92 0L129.92-20.03L131.84-20.03L131.84 0L129.92 0ZM142.16-14.31L142.16-14.31Q144.94-14.31 146.42-12.92L146.42-12.92L146.42-12.92Q147.91-11.53 147.91-8.80L147.91-8.80L147.91 0L146.07 0L146.07-2.21L146.07-2.21Q145.42-1.11 144.17-0.49L144.17-0.49L144.17-0.49Q142.91 0.14 141.18 0.14L141.18 0.14L141.18 0.14Q138.81 0.14 137.40-1.00L137.40-1.00L137.40-1.00Q136.00-2.13 136.00-4.00L136.00-4.00L136.00-4.00Q136.00-5.80 137.31-6.91L137.31-6.91L137.31-6.91Q138.62-8.02 141.48-8.02L141.48-8.02L145.99-8.02L145.99-8.88L145.99-8.88Q145.99-10.72 144.96-11.68L144.96-11.68L144.96-11.68Q143.94-12.64 141.97-12.64L141.97-12.64L141.97-12.64Q140.62-12.64 139.37-12.19L139.37-12.19L139.37-12.19Q138.13-11.74 137.24-10.96L137.24-10.96L136.38-12.39L136.38-12.39Q137.46-13.31 138.97-13.81L138.97-13.81L138.97-13.81Q140.48-14.31 142.16-14.31L142.16-14.31ZM141.48-1.38L141.48-1.38Q143.10-1.38 144.26-2.12L144.26-2.12L144.26-2.12Q145.42-2.86 145.99-4.27L145.99-4.27L145.99-6.59L141.53-6.59L141.53-6.59Q137.89-6.59 137.89-4.05L137.89-4.05L137.89-4.05Q137.89-2.81 138.83-2.09L138.83-2.09L138.83-2.09Q139.78-1.38 141.48-1.38L141.48-1.38ZM160.35-14.31L160.35-14.31Q163.03-14.31 164.61-12.76L164.61-12.76L164.61-12.76Q166.19-11.21 166.19-8.23L166.19-8.23L166.19 0L164.27 0L164.27-8.05L164.27-8.05Q164.27-10.26 163.16-11.42L163.16-11.42L163.16-11.42Q162.05-12.58 160.00-12.58L160.00-12.58L160.00-12.58Q157.71-12.58 156.37-11.22L156.37-11.22L156.37-11.22Q155.03-9.86 155.03-7.45L155.03-7.45L155.03 0L153.12 0L153.12-14.20L154.95-14.20L154.95-11.58L154.95-11.58Q155.74-12.88 157.13-13.59L157.13-13.59L157.13-13.59Q158.52-14.31 160.35-14.31L160.35-14.31ZM182.71-14.20L184.55-14.20L184.55-1.73L184.55-1.73Q184.55 1.89 182.78 3.63L182.78 3.63L182.78 3.63Q181.01 5.37 177.44 5.37L177.44 5.37L177.44 5.37Q175.47 5.37 173.70 4.79L173.70 4.79L173.70 4.79Q171.94 4.21 170.83 3.19L170.83 3.19L171.80 1.73L171.80 1.73Q172.83 2.65 174.30 3.16L174.30 3.16L174.30 3.16Q175.77 3.67 177.39 3.67L177.39 3.67L177.39 3.67Q180.09 3.67 181.36 2.42L181.36 2.42L181.36 2.42Q182.63 1.16 182.63-1.48L182.63-1.48L182.63-3.29L182.63-3.29Q181.74-1.94 180.29-1.24L180.29-1.24L180.29-1.24Q178.85-0.54 177.09-0.54L177.09-0.54L177.09-0.54Q175.10-0.54 173.46-1.42L173.46-1.42L173.46-1.42Q171.83-2.29 170.90-3.87L170.90-3.87L170.90-3.87Q169.97-5.45 169.97-7.45L169.97-7.45L169.97-7.45Q169.97-9.45 170.90-11.02L170.90-11.02L170.90-11.02Q171.83-12.58 173.45-13.45L173.45-13.45L173.45-13.45Q175.07-14.31 177.09-14.31L177.09-14.31L177.09-14.31Q178.90-14.31 180.36-13.58L180.36-13.58L180.36-13.58Q181.82-12.85 182.71-11.47L182.71-11.47L182.71-14.20ZM177.28-2.24L177.28-2.24Q178.82-2.24 180.06-2.90L180.06-2.90L180.06-2.90Q181.31-3.56 181.99-4.75L181.99-4.75L181.99-4.75Q182.68-5.94 182.68-7.45L182.68-7.45L182.68-7.45Q182.68-8.96 181.99-10.14L181.99-10.14L181.99-10.14Q181.31-11.31 180.08-11.97L180.08-11.97L180.08-11.97Q178.85-12.64 177.28-12.64L177.28-12.64L177.28-12.64Q175.74-12.64 174.51-11.99L174.51-11.99L174.51-11.99Q173.29-11.34 172.60-10.15L172.60-10.15L172.60-10.15Q171.91-8.96 171.91-7.45L171.91-7.45L171.91-7.45Q171.91-5.94 172.60-4.75L172.60-4.75L172.60-4.75Q173.29-3.56 174.51-2.90L174.51-2.90L174.51-2.90Q175.74-2.24 177.28-2.24L177.28-2.24ZM200.80-14.20L202.72-14.20L202.72 0L200.88 0L200.88-2.59L200.88-2.59Q200.12-1.30 198.80-0.58L198.80-0.58L198.80-0.58Q197.48 0.14 195.78 0.14L195.78 0.14L195.78 0.14Q193.00 0.14 191.39-1.42L191.39-1.42L191.39-1.42Q189.78-2.97 189.78-5.97L189.78-5.97L189.78-14.20L191.70-14.20L191.70-6.16L191.70-6.16Q191.70-3.92 192.81-2.75L192.81-2.75L192.81-2.75Q193.91-1.59 195.97-1.59L195.97-1.59L195.97-1.59Q198.21-1.59 199.50-2.96L199.50-2.96L199.50-2.96Q200.80-4.32 200.80-6.75L200.80-6.75L200.80-14.20ZM213.06-14.31L213.06-14.31Q215.84-14.31 217.32-12.92L217.32-12.92L217.32-12.92Q218.81-11.53 218.81-8.80L218.81-8.80L218.81 0L216.97 0L216.97-2.21L216.97-2.21Q216.32-1.11 215.07-0.49L215.07-0.49L215.07-0.49Q213.81 0.14 212.09 0.14L212.09 0.14L212.09 0.14Q209.71 0.14 208.31-1.00L208.31-1.00L208.31-1.00Q206.90-2.13 206.90-4.00L206.90-4.00L206.90-4.00Q206.90-5.80 208.21-6.91L208.21-6.91L208.21-6.91Q209.52-8.02 212.38-8.02L212.38-8.02L216.89-8.02L216.89-8.88L216.89-8.88Q216.89-10.72 215.87-11.68L215.87-11.68L215.87-11.68Q214.84-12.64 212.87-12.64L212.87-12.64L212.87-12.64Q211.52-12.64 210.28-12.19L210.28-12.19L210.28-12.19Q209.03-11.74 208.14-10.96L208.14-10.96L207.28-12.39L207.28-12.39Q208.36-13.31 209.87-13.81L209.87-13.81L209.87-13.81Q211.38-14.31 213.06-14.31L213.06-14.31ZM212.38-1.38L212.38-1.38Q214.00-1.38 215.16-2.12L215.16-2.12L215.16-2.12Q216.32-2.86 216.89-4.27L216.89-4.27L216.89-6.59L212.44-6.59L212.44-6.59Q208.79-6.59 208.79-4.05L208.79-4.05L208.79-4.05Q208.79-2.81 209.74-2.09L209.74-2.09L209.74-2.09Q210.68-1.38 212.38-1.38L212.38-1.38ZM235.33-14.20L237.17-14.20L237.17-1.73L237.17-1.73Q237.17 1.89 235.40 3.63L235.40 3.63L235.40 3.63Q233.63 5.37 230.07 5.37L230.07 5.37L230.07 5.37Q228.10 5.37 226.33 4.79L226.33 4.79L226.33 4.79Q224.56 4.21 223.45 3.19L223.45 3.19L224.42 1.73L224.42 1.73Q225.45 2.65 226.92 3.16L226.92 3.16L226.92 3.16Q228.39 3.67 230.01 3.67L230.01 3.67L230.01 3.67Q232.71 3.67 233.98 2.42L233.98 2.42L233.98 2.42Q235.25 1.16 235.25-1.48L235.25-1.48L235.25-3.29L235.25-3.29Q234.36-1.94 232.92-1.24L232.92-1.24L232.92-1.24Q231.47-0.54 229.72-0.54L229.72-0.54L229.72-0.54Q227.72-0.54 226.08-1.42L226.08-1.42L226.08-1.42Q224.45-2.29 223.52-3.87L223.52-3.87L223.52-3.87Q222.59-5.45 222.59-7.45L222.59-7.45L222.59-7.45Q222.59-9.45 223.52-11.02L223.52-11.02L223.52-11.02Q224.45-12.58 226.07-13.45L226.07-13.45L226.07-13.45Q227.69-14.31 229.72-14.31L229.72-14.31L229.72-14.31Q231.53-14.31 232.98-13.58L232.98-13.58L232.98-13.58Q234.44-12.85 235.33-11.47L235.33-11.47L235.33-14.20ZM229.91-2.24L229.91-2.24Q231.44-2.24 232.69-2.90L232.69-2.90L232.69-2.90Q233.93-3.56 234.62-4.75L234.62-4.75L234.62-4.75Q235.31-5.94 235.31-7.45L235.31-7.45L235.31-7.45Q235.31-8.96 234.62-10.14L234.62-10.14L234.62-10.14Q233.93-11.31 232.70-11.97L232.70-11.97L232.70-11.97Q231.47-12.64 229.91-12.64L229.91-12.64L229.91-12.64Q228.37-12.64 227.14-11.99L227.14-11.99L227.14-11.99Q225.91-11.34 225.22-10.15L225.22-10.15L225.22-10.15Q224.53-8.96 224.53-7.45L224.53-7.45L224.53-7.45Q224.53-5.94 225.22-4.75L225.22-4.75L225.22-4.75Q225.91-3.56 227.14-2.90L227.14-2.90L227.14-2.90Q228.37-2.24 229.91-2.24L229.91-2.24ZM254.93-7.10L254.91-6.51L243.03-6.51L243.03-6.51Q243.19-4.29 244.73-2.93L244.73-2.93L244.73-2.93Q246.27-1.57 248.62-1.57L248.62-1.57L248.62-1.57Q249.94-1.57 251.05-2.04L251.05-2.04L251.05-2.04Q252.15-2.51 252.96-3.43L252.96-3.43L254.04-2.19L254.04-2.19Q253.10-1.05 251.68-0.46L251.68-0.46L251.68-0.46Q250.26 0.14 248.56 0.14L248.56 0.14L248.56 0.14Q246.38 0.14 244.69-0.80L244.69-0.80L244.69-0.80Q243-1.73 242.06-3.38L242.06-3.38L242.06-3.38Q241.11-5.02 241.11-7.10L241.11-7.10L241.11-7.10Q241.11-9.18 242.01-10.83L242.01-10.83L242.01-10.83Q242.92-12.47 244.50-13.39L244.50-13.39L244.50-13.39Q246.08-14.31 248.05-14.31L248.05-14.31L248.05-14.31Q250.02-14.31 251.59-13.39L251.59-13.39L251.59-13.39Q253.15-12.47 254.04-10.84L254.04-10.84L254.04-10.84Q254.93-9.21 254.93-7.10L254.93-7.10ZM248.05-12.66L248.05-12.66Q246.00-12.66 244.61-11.35L244.61-11.35L244.61-11.35Q243.22-10.04 243.03-7.94L243.03-7.94L253.10-7.94L253.10-7.94Q252.91-10.04 251.52-11.35L251.52-11.35L251.52-11.35Q250.13-12.66 248.05-12.66L248.05-12.66ZM262.66 0.14L262.66 0.14Q260.93 0.14 259.35-0.36L259.35-0.36L259.35-0.36Q257.77-0.86 256.88-1.62L256.88-1.62L257.74-3.13L257.74-3.13Q258.63-2.43 259.98-1.98L259.98-1.98L259.98-1.98Q261.33-1.54 262.79-1.54L262.79-1.54L262.79-1.54Q264.74-1.54 265.67-2.15L265.67-2.15L265.67-2.15Q266.60-2.75 266.60-3.86L266.60-3.86L266.60-3.86Q266.60-4.64 266.08-5.09L266.08-5.09L266.08-5.09Q265.57-5.54 264.79-5.76L264.79-5.76L264.79-5.76Q264.01-5.99 262.71-6.21L262.71-6.21L262.71-6.21Q260.98-6.53 259.93-6.87L259.93-6.87L259.93-6.87Q258.88-7.21 258.13-8.02L258.13-8.02L258.13-8.02Q257.39-8.83 257.39-10.26L257.39-10.26L257.39-10.26Q257.39-12.04 258.88-13.18L258.88-13.18L258.88-13.18Q260.36-14.31 263.01-14.31L263.01-14.31L263.01-14.31Q264.38-14.31 265.76-13.95L265.76-13.95L265.76-13.95Q267.14-13.58 268.03-12.99L268.03-12.99L267.19-11.45L267.19-11.45Q265.44-12.66 263.01-12.66L263.01-12.66L263.01-12.66Q261.17-12.66 260.24-12.02L260.24-12.02L260.24-12.02Q259.31-11.37 259.31-10.31L259.31-10.31L259.31-10.31Q259.31-9.50 259.83-9.02L259.83-9.02L259.83-9.02Q260.36-8.53 261.14-8.30L261.14-8.30L261.14-8.30Q261.93-8.07 263.30-7.83L263.30-7.83L263.30-7.83Q265.00-7.51 266.03-7.18L266.03-7.18L266.03-7.18Q267.06-6.86 267.79-6.08L267.79-6.08L267.79-6.08Q268.51-5.29 268.51-3.92L268.51-3.92L268.51-3.92Q268.51-2.05 266.96-0.96L266.96-0.96L266.96-0.96Q265.41 0.14 262.66 0.14L262.66 0.14Z" fill="url(#editing-gradient-gradient)"/>
    </g>
  </g>
</svg>
