<?xml version="1.0" encoding="utf-8"?>
<svg xmlns="http://www.w3.org/2000/svg" viewBox="121.171875 42.2 257.65625 65.6" style="background: rgba(0, 0, 0, 0);">
  <defs>
    <linearGradient id="editing-gradient-gradient" x1="0" x2="1" y1="0.5" y2="0.5" gradientUnits="objectBoundingBox">
       <stop offset="0" style="stop-color: rgb(65, 65, 65);" />
        <stop offset="1" style="stop-color: rgb(155, 155, 155);" />
    </linearGradient>
    <style>
      text {
        font-size: 64px;
        font-family: Arial Black;
        dominant-baseline: central;
        text-anchor: middle;
      }
    </style>
  </defs>
  <g>
    <g transform="translate(162.48001006245613, 87.70000076293945)">
      <path d="M9.48-2.24L10.15-0.86L10.15-0.86Q9.61-0.38 8.82-0.12L8.82-0.12L8.82-0.12Q8.02 0.14 7.16 0.14L7.16 0.14L7.16 0.14Q5.16 0.14 4.08-0.94L4.08-0.94L4.08-0.94Q3.00-2.02 3.00-4.00L3.00-4.00L3.00-12.58L0.46-12.58L0.46-14.20L3.00-14.20L3.00-17.31L4.91-17.31L4.91-14.20L9.23-14.20L9.23-12.58L4.91-12.58L4.91-4.10L4.91-4.10Q4.91-2.83 5.55-2.17L5.55-2.17L5.55-2.17Q6.18-1.51 7.37-1.51L7.37-1.51L7.37-1.51Q7.96-1.51 8.52-1.70L8.52-1.70L8.52-1.70Q9.07-1.89 9.48-2.24L9.48-2.24ZM26.03-7.10L26.00-6.51L14.12-6.51L14.12-6.51Q14.28-4.29 15.82-2.93L15.82-2.93L15.82-2.93Q17.36-1.57 19.71-1.57L19.71-1.57L19.71-1.57Q21.03-1.57 22.14-2.04L22.14-2.04L22.14-2.04Q23.25-2.51 24.06-3.43L24.06-3.43L25.14-2.19L25.14-2.19Q24.19-1.05 22.77-0.46L22.77-0.46L22.77-0.46Q21.36 0.14 19.66 0.14L19.66 0.14L19.66 0.14Q17.47 0.14 15.78-0.80L15.78-0.80L15.78-0.80Q14.09-1.73 13.15-3.38L13.15-3.38L13.15-3.38Q12.20-5.02 12.20-7.10L12.20-7.10L12.20-7.10Q12.20-9.18 13.11-10.83L13.11-10.83L13.11-10.83Q14.01-12.47 15.59-13.39L15.59-13.39L15.59-13.39Q17.17-14.31 19.14-14.31L19.14-14.31L19.14-14.31Q21.11-14.31 22.68-13.39L22.68-13.39L22.68-13.39Q24.25-12.47 25.14-10.84L25.14-10.84L25.14-10.84Q26.03-9.21 26.03-7.10L26.03-7.10ZM19.14-12.66L19.14-12.66Q17.09-12.66 15.70-11.35L15.70-11.35L15.70-11.35Q14.31-10.04 14.12-7.94L14.12-7.94L24.19-7.94L24.19-7.94Q24.00-10.04 22.61-11.35L22.61-11.35L22.61-11.35Q21.22-12.66 19.14-12.66L19.14-12.66ZM35.83 0.14L35.83 0.14Q33.72 0.14 32.06-0.78L32.06-0.78L32.06-0.78Q30.40-1.70 29.46-3.36L29.46-3.36L29.46-3.36Q28.51-5.02 28.51-7.10L28.51-7.10L28.51-7.10Q28.51-9.18 29.46-10.83L29.46-10.83L29.46-10.83Q30.40-12.47 32.06-13.39L32.06-13.39L32.06-13.39Q33.72-14.31 35.83-14.31L35.83-14.31L35.83-14.31Q37.66-14.31 39.11-13.59L39.11-13.59L39.11-13.59Q40.55-12.88 41.39-11.50L41.39-11.50L39.96-10.53L39.96-10.53Q39.26-11.58 38.18-12.11L38.18-12.11L38.18-12.11Q37.10-12.64 35.83-12.64L35.83-12.64L35.83-12.64Q34.29-12.64 33.06-11.95L33.06-11.95L33.06-11.95Q31.83-11.26 31.14-9.99L31.14-9.99L31.14-9.99Q30.46-8.72 30.46-7.10L30.46-7.10L30.46-7.10Q30.46-5.45 31.14-4.20L31.14-4.20L31.14-4.20Q31.83-2.94 33.06-2.25L33.06-2.25L33.06-2.25Q34.29-1.57 35.83-1.57L35.83-1.57L35.83-1.57Q37.10-1.57 38.18-2.08L38.18-2.08L38.18-2.08Q39.26-2.59 39.96-3.65L39.96-3.65L41.39-2.67L41.39-2.67Q40.55-1.30 39.10-0.58L39.10-0.58L39.10-0.58Q37.64 0.14 35.83 0.14L35.83 0.14ZM52.38-14.31L52.38-14.31Q55.05-14.31 56.63-12.76L56.63-12.76L56.63-12.76Q58.21-11.21 58.21-8.23L58.21-8.23L58.21 0L56.30 0L56.30-8.05L56.30-8.05Q56.30-10.26 55.19-11.42L55.19-11.42L55.19-11.42Q54.08-12.58 52.03-12.58L52.03-12.58L52.03-12.58Q49.73-12.58 48.40-11.22L48.40-11.22L48.40-11.22Q47.06-9.86 47.06-7.45L47.06-7.45L47.06 0L45.14 0L45.14-20.03L47.06-20.03L47.06-11.72L47.06-11.72Q47.84-12.96 49.22-13.63L49.22-13.63L49.22-13.63Q50.60-14.31 52.38-14.31L52.38-14.31ZM70.66-14.31L70.66-14.31Q73.33-14.31 74.91-12.76L74.91-12.76L74.91-12.76Q76.49-11.21 76.49-8.23L76.49-8.23L76.49 0L74.57 0L74.57-8.05L74.57-8.05Q74.57-10.26 73.47-11.42L73.47-11.42L73.47-11.42Q72.36-12.58 70.31-12.58L70.31-12.58L70.31-12.58Q68.01-12.58 66.68-11.22L66.68-11.22L66.68-11.22Q65.34-9.86 65.34-7.45L65.34-7.45L65.34 0L63.42 0L63.42-14.20L65.26-14.20L65.26-11.58L65.26-11.58Q66.04-12.88 67.43-13.59L67.43-13.59L67.43-13.59Q68.82-14.31 70.66-14.31L70.66-14.31ZM87.51 0.14L87.51 0.14Q85.45 0.14 83.81-0.80L83.81-0.80L83.81-0.80Q82.16-1.73 81.22-3.38L81.22-3.38L81.22-3.38Q80.27-5.02 80.27-7.10L80.27-7.10L80.27-7.10Q80.27-9.18 81.22-10.83L81.22-10.83L81.22-10.83Q82.16-12.47 83.81-13.39L83.81-13.39L83.81-13.39Q85.45-14.31 87.51-14.31L87.51-14.31L87.51-14.31Q89.56-14.31 91.21-13.39L91.21-13.39L91.21-13.39Q92.85-12.47 93.78-10.83L93.78-10.83L93.78-10.83Q94.72-9.18 94.72-7.10L94.72-7.10L94.72-7.10Q94.72-5.02 93.78-3.38L93.78-3.38L93.78-3.38Q92.85-1.73 91.21-0.80L91.21-0.80L91.21-0.80Q89.56 0.14 87.51 0.14L87.51 0.14ZM87.51-1.57L87.51-1.57Q89.02-1.57 90.22-2.25L90.22-2.25L90.22-2.25Q91.42-2.94 92.10-4.21L92.10-4.21L92.10-4.21Q92.77-5.48 92.77-7.10L92.77-7.10L92.77-7.10Q92.77-8.72 92.10-9.99L92.10-9.99L92.10-9.99Q91.42-11.26 90.22-11.95L90.22-11.95L90.22-11.95Q89.02-12.64 87.51-12.64L87.51-12.64L87.51-12.64Q85.99-12.64 84.79-11.95L84.79-11.95L84.79-11.95Q83.59-11.26 82.90-9.99L82.90-9.99L82.90-9.99Q82.22-8.72 82.22-7.10L82.22-7.10L82.22-7.10Q82.22-5.48 82.90-4.21L82.90-4.21L82.90-4.21Q83.59-2.94 84.79-2.25L84.79-2.25L84.79-2.25Q85.99-1.57 87.51-1.57L87.51-1.57ZM98.63 0L98.63-20.03L100.55-20.03L100.55 0L98.63 0ZM111.70 0.14L111.70 0.14Q109.65 0.14 108-0.80L108-0.80L108-0.80Q106.35-1.73 105.41-3.38L105.41-3.38L105.41-3.38Q104.46-5.02 104.46-7.10L104.46-7.10L104.46-7.10Q104.46-9.18 105.41-10.83L105.41-10.83L105.41-10.83Q106.35-12.47 108-13.39L108-13.39L108-13.39Q109.65-14.31 111.70-14.31L111.70-14.31L111.70-14.31Q113.75-14.31 115.40-13.39L115.40-13.39L115.40-13.39Q117.05-12.47 117.98-10.83L117.98-10.83L117.98-10.83Q118.91-9.18 118.91-7.10L118.91-7.10L118.91-7.10Q118.91-5.02 117.98-3.38L117.98-3.38L117.98-3.38Q117.05-1.73 115.40-0.80L115.40-0.80L115.40-0.80Q113.75 0.14 111.70 0.14L111.70 0.14ZM111.70-1.57L111.70-1.57Q113.21-1.57 114.41-2.25L114.41-2.25L114.41-2.25Q115.61-2.94 116.29-4.21L116.29-4.21L116.29-4.21Q116.96-5.48 116.96-7.10L116.96-7.10L116.96-7.10Q116.96-8.72 116.29-9.99L116.29-9.99L116.29-9.99Q115.61-11.26 114.41-11.95L114.41-11.95L114.41-11.95Q113.21-12.64 111.70-12.64L111.70-12.64L111.70-12.64Q110.19-12.64 108.99-11.95L108.99-11.95L108.99-11.95Q107.78-11.26 107.10-9.99L107.10-9.99L107.10-9.99Q106.41-8.72 106.41-7.10L106.41-7.10L106.41-7.10Q106.41-5.48 107.10-4.21L107.10-4.21L107.10-4.21Q107.78-2.94 108.99-2.25L108.99-2.25L108.99-2.25Q110.19-1.57 111.70-1.57L111.70-1.57ZM134.14-14.20L135.97-14.20L135.97-1.73L135.97-1.73Q135.97 1.89 134.20 3.63L134.20 3.63L134.20 3.63Q132.44 5.37 128.87 5.37L128.87 5.37L128.87 5.37Q126.90 5.37 125.13 4.79L125.13 4.79L125.13 4.79Q123.36 4.21 122.26 3.19L122.26 3.19L123.23 1.73L123.23 1.73Q124.25 2.65 125.73 3.16L125.73 3.16L125.73 3.16Q127.20 3.67 128.82 3.67L128.82 3.67L128.82 3.67Q131.52 3.67 132.79 2.42L132.79 2.42L132.79 2.42Q134.06 1.16 134.06-1.48L134.06-1.48L134.06-3.29L134.06-3.29Q133.16-1.94 131.72-1.24L131.72-1.24L131.72-1.24Q130.28-0.54 128.52-0.54L128.52-0.54L128.52-0.54Q126.52-0.54 124.89-1.42L124.89-1.42L124.89-1.42Q123.26-2.29 122.32-3.87L122.32-3.87L122.32-3.87Q121.39-5.45 121.39-7.45L121.39-7.45L121.39-7.45Q121.39-9.45 122.32-11.02L122.32-11.02L122.32-11.02Q123.26-12.58 124.88-13.45L124.88-13.45L124.88-13.45Q126.50-14.31 128.52-14.31L128.52-14.31L128.52-14.31Q130.33-14.31 131.79-13.58L131.79-13.58L131.79-13.58Q133.25-12.85 134.14-11.47L134.14-11.47L134.14-14.20ZM128.71-2.24L128.71-2.24Q130.25-2.24 131.49-2.90L131.49-2.90L131.49-2.90Q132.73-3.56 133.42-4.75L133.42-4.75L133.42-4.75Q134.11-5.94 134.11-7.45L134.11-7.45L134.11-7.45Q134.11-8.96 133.42-10.14L133.42-10.14L133.42-10.14Q132.73-11.31 131.50-11.97L131.50-11.97L131.50-11.97Q130.28-12.64 128.71-12.64L128.71-12.64L128.71-12.64Q127.17-12.64 125.94-11.99L125.94-11.99L125.94-11.99Q124.71-11.34 124.02-10.15L124.02-10.15L124.02-10.15Q123.34-8.96 123.34-7.45L123.34-7.45L123.34-7.45Q123.34-5.94 124.02-4.75L124.02-4.75L124.02-4.75Q124.71-3.56 125.94-2.90L125.94-2.90L125.94-2.90Q127.17-2.24 128.71-2.24L128.71-2.24ZM141.34 0L141.34-14.20L143.26-14.20L143.26 0L141.34 0ZM142.32-17.31L142.32-17.31Q141.72-17.31 141.32-17.71L141.32-17.71L141.32-17.71Q140.91-18.12 140.91-18.68L140.91-18.68L140.91-18.68Q140.91-19.22 141.32-19.63L141.32-19.63L141.32-19.63Q141.72-20.03 142.32-20.03L142.32-20.03L142.32-20.03Q142.91-20.03 143.32-19.64L143.32-19.64L143.32-19.64Q143.72-19.25 143.72-18.71L143.72-18.71L143.72-18.71Q143.72-18.12 143.32-17.71L143.32-17.71L143.32-17.71Q142.91-17.31 142.32-17.31L142.32-17.31ZM161.00-7.10L160.97-6.51L149.09-6.51L149.09-6.51Q149.26-4.29 150.80-2.93L150.80-2.93L150.80-2.93Q152.33-1.57 154.68-1.57L154.68-1.57L154.68-1.57Q156.01-1.57 157.11-2.04L157.11-2.04L157.11-2.04Q158.22-2.51 159.03-3.43L159.03-3.43L160.11-2.19L160.11-2.19Q159.16-1.05 157.75-0.46L157.75-0.46L157.75-0.46Q156.33 0.14 154.63 0.14L154.63 0.14L154.63 0.14Q152.44 0.14 150.75-0.80L150.75-0.80L150.75-0.80Q149.07-1.73 148.12-3.38L148.12-3.38L148.12-3.38Q147.18-5.02 147.18-7.10L147.18-7.10L147.18-7.10Q147.18-9.18 148.08-10.83L148.08-10.83L148.08-10.83Q148.99-12.47 150.57-13.39L150.57-13.39L150.57-13.39Q152.15-14.31 154.12-14.31L154.12-14.31L154.12-14.31Q156.09-14.31 157.65-13.39L157.65-13.39L157.65-13.39Q159.22-12.47 160.11-10.84L160.11-10.84L160.11-10.84Q161.00-9.21 161.00-7.10L161.00-7.10ZM154.12-12.66L154.12-12.66Q152.06-12.66 150.67-11.35L150.67-11.35L150.67-11.35Q149.28-10.04 149.09-7.94L149.09-7.94L159.16-7.94L159.16-7.94Q158.98-10.04 157.59-11.35L157.59-11.35L157.59-11.35Q156.19-12.66 154.12-12.66L154.12-12.66ZM168.72 0.14L168.72 0.14Q167.00 0.14 165.42-0.36L165.42-0.36L165.42-0.36Q163.84-0.86 162.94-1.62L162.94-1.62L163.81-3.13L163.81-3.13Q164.70-2.43 166.05-1.98L166.05-1.98L166.05-1.98Q167.40-1.54 168.86-1.54L168.86-1.54L168.86-1.54Q170.80-1.54 171.73-2.15L171.73-2.15L171.73-2.15Q172.66-2.75 172.66-3.86L172.66-3.86L172.66-3.86Q172.66-4.64 172.15-5.09L172.15-5.09L172.15-5.09Q171.64-5.54 170.86-5.76L170.86-5.76L170.86-5.76Q170.07-5.99 168.78-6.21L168.78-6.21L168.78-6.21Q167.05-6.53 166.00-6.87L166.00-6.87L166.00-6.87Q164.94-7.21 164.20-8.02L164.20-8.02L164.20-8.02Q163.46-8.83 163.46-10.26L163.46-10.26L163.46-10.26Q163.46-12.04 164.94-13.18L164.94-13.18L164.94-13.18Q166.43-14.31 169.07-14.31L169.07-14.31L169.07-14.31Q170.45-14.31 171.83-13.95L171.83-13.95L171.83-13.95Q173.20-13.58 174.10-12.99L174.10-12.99L173.26-11.45L173.26-11.45Q171.50-12.66 169.07-12.66L169.07-12.66L169.07-12.66Q167.24-12.66 166.31-12.02L166.31-12.02L166.31-12.02Q165.38-11.37 165.38-10.31L165.38-10.31L165.38-10.31Q165.38-9.50 165.90-9.02L165.90-9.02L165.90-9.02Q166.43-8.53 167.21-8.30L167.21-8.30L167.21-8.30Q167.99-8.07 169.37-7.83L169.37-7.83L169.37-7.83Q171.07-7.51 172.10-7.18L172.10-7.18L172.10-7.18Q173.12-6.86 173.85-6.08L173.85-6.08L173.85-6.08Q174.58-5.29 174.58-3.92L174.58-3.92L174.58-3.92Q174.58-2.05 173.03-0.96L173.03-0.96L173.03-0.96Q171.48 0.14 168.72 0.14L168.72 0.14Z" fill="url(#editing-gradient-gradient)"/>
    </g>
  </g>
</svg>
