<?xml version="1.0" encoding="utf-8"?><svg xmlns="http://www.w3.org/2000/svg" viewBox="148.9875 42.2 202.025 65.6" style="background: rgba(0, 0, 0, 0);">
        
  <defs>
    <linearGradient id="editing-gradient-gradient" x1="0" x2="1" y1="0.5" y2="0.5" gradientUnits="objectBoundingBox">
      <stop offset="0" style="stop-color: rgb(65, 65, 65);" />
      <stop offset="1" style="stop-color: rgb(155, 155, 155);" />
    </linearGradient>
    <style>text {
  font-size: 64px;
  font-family: Arial Black;
  dominant-baseline: central;
  text-anchor: middle;
  }
</style>
  </defs>
  <g>
    <g transform="translate(183.2000189125538, 85.08500003814697)">
      <path d="M9.48-2.24L10.15-0.86L10.15-0.86Q9.61-0.38 8.82-0.12L8.82-0.12L8.82-0.12Q8.02 0.14 7.16 0.14L7.16 0.14L7.16 0.14Q5.16 0.14 4.08-0.94L4.08-0.94L4.08-0.94Q3.00-2.02 3.00-4.00L3.00-4.00L3.00-12.58L0.46-12.58L0.46-14.20L3.00-14.20L3.00-17.31L4.91-17.31L4.91-14.20L9.23-14.20L9.23-12.58L4.91-12.58L4.91-4.10L4.91-4.10Q4.91-2.83 5.55-2.17L5.55-2.17L5.55-2.17Q6.18-1.51 7.37-1.51L7.37-1.51L7.37-1.51Q7.96-1.51 8.52-1.70L8.52-1.70L8.52-1.70Q9.07-1.89 9.48-2.24L9.48-2.24ZM19.44 0.14L19.44 0.14Q17.39 0.14 15.74-0.80L15.74-0.80L15.74-0.80Q14.09-1.73 13.15-3.38L13.15-3.38L13.15-3.38Q12.20-5.02 12.20-7.10L12.20-7.10L12.20-7.10Q12.20-9.18 13.15-10.83L13.15-10.83L13.15-10.83Q14.09-12.47 15.74-13.39L15.74-13.39L15.74-13.39Q17.39-14.31 19.44-14.31L19.44-14.31L19.44-14.31Q21.49-14.31 23.14-13.39L23.14-13.39L23.14-13.39Q24.79-12.47 25.72-10.83L25.72-10.83L25.72-10.83Q26.65-9.18 26.65-7.10L26.65-7.10L26.65-7.10Q26.65-5.02 25.72-3.38L25.72-3.38L25.72-3.38Q24.79-1.73 23.14-0.80L23.14-0.80L23.14-0.80Q21.49 0.14 19.44 0.14L19.44 0.14ZM19.44-1.57L19.44-1.57Q20.95-1.57 22.15-2.25L22.15-2.25L22.15-2.25Q23.36-2.94 24.03-4.21L24.03-4.21L24.03-4.21Q24.70-5.48 24.70-7.10L24.70-7.10L24.70-7.10Q24.70-8.72 24.03-9.99L24.03-9.99L24.03-9.99Q23.36-11.26 22.15-11.95L22.15-11.95L22.15-11.95Q20.95-12.64 19.44-12.64L19.44-12.64L19.44-12.64Q17.93-12.64 16.73-11.95L16.73-11.95L16.73-11.95Q15.52-11.26 14.84-9.99L14.84-9.99L14.84-9.99Q14.15-8.72 14.15-7.10L14.15-7.10L14.15-7.10Q14.15-5.48 14.84-4.21L14.84-4.21L14.84-4.21Q15.52-2.94 16.73-2.25L16.73-2.25L16.73-2.25Q17.93-1.57 19.44-1.57L19.44-1.57ZM36.37 0.14L36.37 0.14Q34.32 0.14 32.67-0.80L32.67-0.80L32.67-0.80Q31.02-1.73 30.08-3.38L30.08-3.38L30.08-3.38Q29.13-5.02 29.13-7.10L29.13-7.10L29.13-7.10Q29.13-9.18 30.08-10.83L30.08-10.83L30.08-10.83Q31.02-12.47 32.67-13.39L32.67-13.39L32.67-13.39Q34.32-14.31 36.37-14.31L36.37-14.31L36.37-14.31Q38.42-14.31 40.07-13.39L40.07-13.39L40.07-13.39Q41.71-12.47 42.65-10.83L42.65-10.83L42.65-10.83Q43.58-9.18 43.58-7.10L43.58-7.10L43.58-7.10Q43.58-5.02 42.65-3.38L42.65-3.38L42.65-3.38Q41.71-1.73 40.07-0.80L40.07-0.80L40.07-0.80Q38.42 0.14 36.37 0.14L36.37 0.14ZM36.37-1.57L36.37-1.57Q37.88-1.57 39.08-2.25L39.08-2.25L39.08-2.25Q40.28-2.94 40.96-4.21L40.96-4.21L40.96-4.21Q41.63-5.48 41.63-7.10L41.63-7.10L41.63-7.10Q41.63-8.72 40.96-9.99L40.96-9.99L40.96-9.99Q40.28-11.26 39.08-11.95L39.08-11.95L39.08-11.95Q37.88-12.64 36.37-12.64L36.37-12.64L36.37-12.64Q34.86-12.64 33.66-11.95L33.66-11.95L33.66-11.95Q32.45-11.26 31.77-9.99L31.77-9.99L31.77-9.99Q31.08-8.72 31.08-7.10L31.08-7.10L31.08-7.10Q31.08-5.48 31.77-4.21L31.77-4.21L31.77-4.21Q32.45-2.94 33.66-2.25L33.66-2.25L33.66-2.25Q34.86-1.57 36.37-1.57L36.37-1.57ZM47.49 0L47.49-20.03L49.41-20.03L49.41 0L47.49 0ZM58.56 0.14L58.56 0.14Q56.83 0.14 55.26-0.36L55.26-0.36L55.26-0.36Q53.68-0.86 52.78-1.62L52.78-1.62L53.65-3.13L53.65-3.13Q54.54-2.43 55.89-1.98L55.89-1.98L55.89-1.98Q57.24-1.54 58.70-1.54L58.70-1.54L58.70-1.54Q60.64-1.54 61.57-2.15L61.57-2.15L61.57-2.15Q62.50-2.75 62.50-3.86L62.50-3.86L62.50-3.86Q62.50-4.64 61.99-5.09L61.99-5.09L61.99-5.09Q61.48-5.54 60.70-5.76L60.70-5.76L60.70-5.76Q59.91-5.99 58.62-6.21L58.62-6.21L58.62-6.21Q56.89-6.53 55.84-6.87L55.84-6.87L55.84-6.87Q54.78-7.21 54.04-8.02L54.04-8.02L54.04-8.02Q53.30-8.83 53.30-10.26L53.30-10.26L53.30-10.26Q53.30-12.04 54.78-13.18L54.78-13.18L54.78-13.18Q56.27-14.31 58.91-14.31L58.91-14.31L58.91-14.31Q60.29-14.31 61.67-13.95L61.67-13.95L61.67-13.95Q63.04-13.58 63.94-12.99L63.94-12.99L63.10-11.45L63.10-11.45Q61.34-12.66 58.91-12.66L58.91-12.66L58.91-12.66Q57.08-12.66 56.15-12.02L56.15-12.02L56.15-12.02Q55.21-11.37 55.21-10.31L55.21-10.31L55.21-10.31Q55.21-9.50 55.74-9.02L55.74-9.02L55.74-9.02Q56.27-8.53 57.05-8.30L57.05-8.30L57.05-8.30Q57.83-8.07 59.21-7.83L59.21-7.83L59.21-7.83Q60.91-7.51 61.94-7.18L61.94-7.18L61.94-7.18Q62.96-6.86 63.69-6.08L63.69-6.08L63.69-6.08Q64.42-5.29 64.42-3.92L64.42-3.92L64.42-3.92Q64.42-2.05 62.87-0.96L62.87-0.96L62.87-0.96Q61.32 0.14 58.56 0.14L58.56 0.14ZM75.03 0L75.03-14.20L76.95-14.20L76.95 0L75.03 0ZM76.00-17.31L76.00-17.31Q75.41-17.31 75.01-17.71L75.01-17.71L75.01-17.71Q74.60-18.12 74.60-18.68L74.60-18.68L74.60-18.68Q74.60-19.22 75.01-19.63L75.01-19.63L75.01-19.63Q75.41-20.03 76.00-20.03L76.00-20.03L76.00-20.03Q76.60-20.03 77.00-19.64L77.00-19.64L77.00-19.64Q77.41-19.25 77.41-18.71L77.41-18.71L77.41-18.71Q77.41-18.12 77.00-17.71L77.00-17.71L77.00-17.71Q76.60-17.31 76.00-17.31L76.00-17.31ZM100.25-14.20L102.17-14.20L102.17 0L100.33 0L100.33-2.59L100.33-2.59Q99.58-1.30 98.25-0.58L98.25-0.58L98.25-0.58Q96.93 0.14 95.23 0.14L95.23 0.14L95.23 0.14Q92.45 0.14 90.84-1.42L90.84-1.42L90.84-1.42Q89.23-2.97 89.23-5.97L89.23-5.97L89.23-14.20L91.15-14.20L91.15-6.16L91.15-6.16Q91.15-3.92 92.26-2.75L92.26-2.75L92.26-2.75Q93.37-1.59 95.42-1.59L95.42-1.59L95.42-1.59Q97.66-1.59 98.95-2.96L98.95-2.96L98.95-2.96Q100.25-4.32 100.25-6.75L100.25-6.75L100.25-14.20ZM111.35 0.14L111.35 0.14Q109.62 0.14 108.04-0.36L108.04-0.36L108.04-0.36Q106.46-0.86 105.57-1.62L105.57-1.62L106.43-3.13L106.43-3.13Q107.32-2.43 108.67-1.98L108.67-1.98L108.67-1.98Q110.02-1.54 111.48-1.54L111.48-1.54L111.48-1.54Q113.43-1.54 114.36-2.15L114.36-2.15L114.36-2.15Q115.29-2.75 115.29-3.86L115.29-3.86L115.29-3.86Q115.29-4.64 114.78-5.09L114.78-5.09L114.78-5.09Q114.26-5.54 113.48-5.76L113.48-5.76L113.48-5.76Q112.70-5.99 111.40-6.21L111.40-6.21L111.40-6.21Q109.67-6.53 108.62-6.87L108.62-6.87L108.62-6.87Q107.57-7.21 106.83-8.02L106.83-8.02L106.83-8.02Q106.08-8.83 106.08-10.26L106.08-10.26L106.08-10.26Q106.08-12.04 107.57-13.18L107.57-13.18L107.57-13.18Q109.05-14.31 111.70-14.31L111.70-14.31L111.70-14.31Q113.08-14.31 114.45-13.95L114.45-13.95L114.45-13.95Q115.83-13.58 116.72-12.99L116.72-12.99L115.88-11.45L115.88-11.45Q114.13-12.66 111.70-12.66L111.70-12.66L111.70-12.66Q109.86-12.66 108.93-12.02L108.93-12.02L108.93-12.02Q108-11.37 108-10.31L108-10.31L108-10.31Q108-9.50 108.53-9.02L108.53-9.02L108.53-9.02Q109.05-8.53 109.84-8.30L109.84-8.30L109.84-8.30Q110.62-8.07 112.00-7.83L112.00-7.83L112.00-7.83Q113.70-7.51 114.72-7.18L114.72-7.18L114.72-7.18Q115.75-6.86 116.48-6.08L116.48-6.08L116.48-6.08Q117.21-5.29 117.21-3.92L117.21-3.92L117.21-3.92Q117.21-2.05 115.65-0.96L115.65-0.96L115.65-0.96Q114.10 0.14 111.35 0.14L111.35 0.14ZM133.14-7.10L133.11-6.51L121.23-6.51L121.23-6.51Q121.39-4.29 122.93-2.93L122.93-2.93L122.93-2.93Q124.47-1.57 126.82-1.57L126.82-1.57L126.82-1.57Q128.14-1.57 129.25-2.04L129.25-2.04L129.25-2.04Q130.36-2.51 131.17-3.43L131.17-3.43L132.25-2.19L132.25-2.19Q131.30-1.05 129.88-0.46L129.88-0.46L129.88-0.46Q128.47 0.14 126.77 0.14L126.77 0.14L126.77 0.14Q124.58 0.14 122.89-0.80L122.89-0.80L122.89-0.80Q121.20-1.73 120.26-3.38L120.26-3.38L120.26-3.38Q119.31-5.02 119.31-7.10L119.31-7.10L119.31-7.10Q119.31-9.18 120.22-10.83L120.22-10.83L120.22-10.83Q121.12-12.47 122.70-13.39L122.70-13.39L122.70-13.39Q124.28-14.31 126.25-14.31L126.25-14.31L126.25-14.31Q128.22-14.31 129.79-13.39L129.79-13.39L129.79-13.39Q131.35-12.47 132.25-10.84L132.25-10.84L132.25-10.84Q133.14-9.21 133.14-7.10L133.14-7.10ZM126.25-12.66L126.25-12.66Q124.20-12.66 122.81-11.35L122.81-11.35L122.81-11.35Q121.42-10.04 121.23-7.94L121.23-7.94L131.30-7.94L131.30-7.94Q131.11-10.04 129.72-11.35L129.72-11.35L129.72-11.35Q128.33-12.66 126.25-12.66L126.25-12.66Z" fill="url(#editing-gradient-gradient)"/>
    </g>
  </g>
</svg>
